PathFileType	4	(X/Y/Z)	s06c0203.trc
DataRate	CameraRate	NumFrames	NumMarkers	Units	OrigDataRate	OrigDataStartFrame	OrigNumFrames
200	200	6	48	mm	200	500	2000
Frame#	Time	racr			lacr			c7			jug			rlel			rdr			llel			ldr			s2			lic			ric			lasi			rasi			rpsi			lpsi			rgt			lgt			rth1			rth2			rth3			rth4			rlfc			rmfc			rsh1			rsh2			rsh3			rsh4			rlmal			rcal			rtoe			rmt5			lth1			lth2			lth4			lth3			llfc			lmfc			llmal			lcal			lmt5			lsh1			lsh2			lsh3			lsh4			ltoe			SBIKE			LBIKE			RBIKE			
		X1	Y1	Z1	X2	Y2	Z2	X3	Y3	Z3	X4	Y4	Z4	X5	Y5	Z5	X6	Y6	Z6	X7	Y7	Z7	X8	Y8	Z8	X9	Y9	Z9	X10	Y10	Z10	X11	Y11	Z11	X12	Y12	Z12	X13	Y13	Z13	X14	Y14	Z14	X15	Y15	Z15	X16	Y16	Z16	X17	Y17	Z17	X18	Y18	Z18	X19	Y19	Z19	X20	Y20	Z20	X21	Y21	Z21	X22	Y22	Z22	X23	Y23	Z23	X24	Y24	Z24	X25	Y25	Z25	X26	Y26	Z26	X27	Y27	Z27	X28	Y28	Z28	X29	Y29	Z29	X30	Y30	Z30	X31	Y31	Z31	X32	Y32	Z32	X33	Y33	Z33	X34	Y34	Z34	X35	Y35	Z35	X36	Y36	Z36	X37	Y37	Z37	X38	Y38	Z38	X39	Y39	Z39	X40	Y40	Z40	X41	Y41	Z41	X42	Y42	Z42	X43	Y43	Z43	X44	Y44	Z44	X45	Y45	Z45	X46	Y46	Z46	X47	Y47	Z47	X48	Y48	Z48	
500	2.5000	540.645092	1292.985270	-99.212893	522.109320	1253.481053	-418.666004	506.282468	1375.667348	-266.062598	528.705652	1214.337014	-248.805423	483.520256	1041.627045	26.619527	671.680927	929.561069	-52.912260	454.915608	998.075718	-498.996439	653.901025	926.913622	-409.287847	-14.577113	1145.247088	-211.053087	150.678242	1098.545212	-387.588237	149.444446	1101.384720	-47.307120	170.522462	1044.524891	-347.349839	167.818218	1054.119826	-87.234897	22.083452	1179.094544	-177.291901	20.556623	1178.987312	-238.728605	104.178947	1025.921023	-9.110498	117.326351	1049.189252	-404.593546	200.434844	933.960738	-13.021620	274.626071	882.369599	-27.614101	310.777834	803.535946	-38.787557	296.449592	906.744358	-46.589201	336.818788	706.885715	-66.255283	311.611444	689.166886	-176.973556	258.436589	616.446165	-34.802242	206.073592	549.197219	-52.268076	128.174994	508.176190	-47.918842	218.646297	536.030158	-88.825846	55.909054	460.295995	-45.736917	-6.010406	489.046691	-93.724189	144.894496	256.353635	-95.384320	70.884945	321.545244	-26.430828	172.217901	942.923452	-413.963252	245.906779	897.206285	-406.652275	271.736246	921.735264	-395.242957	287.450103	818.187351	-399.677956	340.517295	711.491573	-376.132194	340.923833	694.059478	-259.462982	241.986101	346.325674	-372.046212	179.852383	293.344410	-323.378674	371.785974	326.207004	-404.749789	320.305419	602.378345	-398.371261	317.620067	517.519744	-378.973423	274.481869	439.942416	-379.942411	340.758760	514.697201	-346.176896	451.736063	363.193492	-348.481640	-203.646957	864.615253	-212.028727	-51.031590	79.810668	-411.515909	-50.981088	79.697610	-14.580760	
501	2.5050	541.392805	1294.023863	-99.223652	522.923787	1254.059833	-418.686749	507.036512	1376.610694	-265.911958	529.662518	1215.261018	-248.774417	484.018133	1042.914467	26.994021	671.831016	929.727100	-52.606525	455.144682	998.592664	-498.890982	654.009294	926.739634	-408.974962	-13.242579	1145.436497	-211.083017	151.824506	1098.159965	-387.258057	150.780757	1102.051257	-47.430350	171.673270	1043.633981	-347.392081	168.998333	1054.681262	-87.294648	23.295538	1179.246568	-177.287141	21.690223	1178.974750	-238.790702	105.621509	1026.817998	-8.717472	118.551312	1048.338051	-404.378630	202.012641	935.703843	-12.780580	276.183149	884.854959	-27.302827	313.430671	806.154634	-38.277039	298.290874	909.257387	-46.377215	340.034223	709.597006	-65.813070	314.590953	691.603701	-176.411106	260.864886	619.534562	-34.489907	208.003144	552.768701	-52.032595	129.735826	512.474754	-47.838545	220.478320	539.526776	-88.556071	57.072669	465.260092	-45.741576	-4.633417	494.367300	-93.744063	144.995128	260.887499	-95.366357	71.249783	326.481934	-26.514877	172.636355	941.358404	-414.379741	245.814306	894.605871	-406.881523	271.937445	918.809399	-395.555736	286.275932	815.063126	-399.736882	338.551375	707.887932	-376.709069	338.731562	690.426523	-260.162057	242.093936	342.080191	-372.283702	179.694430	289.470824	-323.738784	372.000481	320.844158	-404.438430	318.845617	598.654279	-398.929391	316.619295	513.715928	-379.396124	273.990548	435.958086	-380.289348	339.820969	511.174163	-346.775301	452.028729	357.619997	-348.248058	-203.658097	864.613093	-212.018487	-51.027919	79.823116	-411.524929	-50.983865	79.711752	-14.574647	
502	2.5100	541.955892	1295.247658	-99.080083	523.767495	1254.730368	-418.787819	507.793152	1377.635761	-265.869478	530.546911	1216.373507	-248.717286	484.429853	1044.253749	27.467942	671.985143	930.012486	-52.246890	455.498925	998.969067	-498.567946	654.187828	926.558942	-408.686481	-11.993462	1145.555050	-210.928626	152.913131	1097.788750	-387.017218	152.095078	1102.636597	-47.353054	172.746190	1043.086740	-346.910539	170.157214	1055.241740	-88.961763	24.494261	1179.382560	-177.248469	22.838855	1178.963011	-238.780200	107.177103	1027.801109	-8.291117	119.592806	1047.319213	-403.850527	203.867230	937.369002	-13.186348	278.342856	887.218041	-26.968668	315.647095	809.038808	-37.875928	300.196326	911.724346	-46.220975	343.284637	712.337594	-65.383610	317.087858	693.338465	-175.661106	263.460924	622.810585	-34.177128	210.077568	556.560043	-51.783319	131.408862	516.800703	-47.747637	222.487414	543.178985	-88.379970	58.343822	470.204447	-45.749097	-3.178793	499.710692	-93.784367	143.639817	264.265224	-97.031741	71.797683	331.379608	-26.575095	173.099216	939.711477	-414.457362	245.662391	892.072195	-407.127014	272.156290	915.866326	-395.899880	285.130083	811.943701	-399.874138	336.583988	704.260096	-377.294901	336.684326	686.792548	-260.897229	242.163843	337.944845	-372.518251	179.443071	285.682628	-324.047974	372.033838	315.890752	-404.391639	317.339743	594.874181	-399.411774	315.561516	510.118784	-379.887802	273.354150	432.035389	-380.694590	338.749735	508.115985	-347.932831	452.274243	352.093953	-348.062508	-203.623658	864.634383	-211.975338	-51.026298	79.831001	-411.493656	-50.998363	79.725027	-14.569130	
503	2.5150	542.638306	1295.924766	-99.651925	524.487488	1255.404940	-418.849978	508.446390	1378.698791	-265.687790	531.428283	1217.539170	-248.728551	484.737788	1045.521203	27.961910	672.133525	930.315458	-51.962531	455.945270	999.369014	-498.265570	654.412424	926.324537	-408.391784	-10.642570	1145.578286	-210.810137	153.948977	1097.481435	-386.631035	153.431140	1103.294943	-47.528298	173.755691	1042.656937	-346.821095	171.359284	1056.091789	-87.699634	25.659250	1179.512067	-177.224139	23.909300	1178.996807	-238.731272	108.886189	1028.824892	-7.824376	120.734930	1046.568375	-403.532036	205.651359	939.246931	-12.964591	280.609742	889.770218	-26.735052	318.584998	811.700103	-37.428202	302.187617	914.305808	-46.064657	346.608844	715.226757	-64.908076	321.604616	696.981827	-175.757150	265.934675	626.203079	-33.862743	212.216025	560.129070	-51.530257	133.244389	521.122888	-47.692713	224.498250	546.750731	-88.136076	59.829506	475.193135	-45.643506	-1.546619	505.061076	-93.745151	143.973116	268.836861	-97.100168	72.586437	336.439261	-26.633049	173.570919	938.115972	-414.538198	245.512221	889.558801	-407.408615	272.314671	912.968996	-396.241055	283.897217	808.914523	-400.153261	334.562142	700.751461	-377.944129	335.068618	683.124511	-261.727994	242.054333	333.874573	-372.754786	179.072305	282.215362	-324.210661	372.029226	310.747780	-404.331148	315.748120	591.345196	-399.993989	314.434891	506.412834	-380.348984	272.655692	428.269058	-381.239876	337.687287	504.617646	-348.425568	452.460256	346.295096	-347.856357	-203.605695	864.621359	-211.952465	-51.011822	79.835870	-411.482488	-50.999945	79.714792	-14.574280	
504	2.5200	543.027778	1297.209535	-99.438785	525.162843	1256.291057	-418.887093	509.049742	1379.992232	-265.588118	532.220756	1218.875145	-248.788080	485.063436	1046.814454	28.422102	672.235490	930.572671	-51.783988	456.487532	999.893023	-497.946417	654.817037	925.976512	-408.144958	-8.590565	1145.705411	-210.234747	154.883080	1097.307601	-386.454263	154.670690	1104.197330	-47.549072	174.817648	1042.202434	-346.216604	172.612628	1056.823304	-88.199216	26.760685	1179.677557	-177.190009	24.904598	1179.005996	-238.677125	110.607683	1029.962700	-7.331202	121.956016	1045.773643	-403.220840	207.515883	941.133863	-12.834755	282.839430	892.311597	-26.608700	321.488115	814.448417	-37.001337	304.237248	916.945536	-45.955006	350.097982	718.126162	-64.478183	325.516965	700.226503	-174.877908	268.623475	629.482585	-33.644645	214.500229	563.928490	-51.304124	135.159051	525.543596	-47.592085	226.653456	550.341733	-87.939859	61.451282	480.229227	-45.590708	0.165162	510.439555	-93.767298	144.462898	273.405627	-97.263851	73.394660	341.351691	-26.682168	174.002922	936.542341	-414.629228	245.320874	887.070282	-407.731054	272.460993	910.158738	-396.591163	282.695777	805.900770	-400.440429	332.502221	697.227480	-378.596106	332.126530	679.143006	-263.413182	241.794715	329.957326	-372.993420	178.573613	278.832308	-324.505062	371.881556	305.721617	-404.243422	314.138852	587.714894	-400.709048	313.208229	502.977908	-380.908526	271.760905	424.553542	-381.683451	336.530297	501.217377	-348.986353	452.529683	340.605701	-347.666674	-203.609963	864.646922	-211.934535	-51.013783	79.836914	-411.498435	-50.972652	79.696761	-14.587246	
505	2.5250	543.339837	1298.634580	-99.122391	525.721416	1257.232689	-419.129710	509.576236	1381.327628	-265.454209	532.976560	1220.269977	-248.832849	485.350775	1048.118943	28.895597	672.305192	930.715740	-51.669640	456.989910	1000.507966	-497.628265	655.047294	925.936160	-407.866975	-6.566299	1145.465587	-210.331603	155.697787	1097.092106	-386.243131	155.943409	1105.031306	-47.588009	175.780982	1042.015702	-345.718706	173.799931	1057.988730	-88.095733	27.826813	1179.879036	-177.094765	25.912682	1179.038018	-238.635029	112.385128	1031.088207	-6.885795	123.000310	1045.036181	-402.768349	210.060328	943.112718	-12.672843	285.156169	894.936563	-26.479173	324.513205	817.350358	-36.498337	306.350335	919.663882	-45.889239	353.622050	721.138113	-64.016944	328.981114	703.173380	-174.430456	271.458471	632.857967	-33.250159	216.840404	567.661396	-51.063791	137.209807	529.916653	-47.483337	228.886508	554.167466	-87.770051	63.169623	485.255452	-45.580162	2.091365	515.741230	-93.886798	145.213868	278.080104	-97.253581	74.457916	346.388146	-26.718360	174.339619	934.994480	-414.763257	245.070777	884.641728	-408.075864	272.526268	907.422614	-396.962841	281.404789	803.022034	-400.840972	330.411118	693.778479	-379.289434	331.351931	676.056385	-264.022602	241.540536	326.105698	-373.215700	177.884902	275.467820	-324.883740	371.536505	300.669850	-404.193670	312.383368	584.333976	-401.354976	311.892090	499.422373	-381.446372	270.867188	420.858794	-382.166623	335.291840	497.892011	-349.580680	452.495518	335.043110	-347.558927	-203.586276	864.668890	-211.922343	-51.004720	79.862084	-411.477743	-50.985332	79.724482	-14.565520	
